<svg xmlns="http://www.w3.org/2000/svg" width="38.63" height="31.375" viewBox="0 0 38.63 31.375">
  <path id="Icon_awesome-twitter" data-name="Icon awesome-twitter" d="M34.659,11.2c.025.343.025.686.025,1.03,0,10.466-7.966,22.526-22.526,22.526A22.373,22.373,0,0,1,0,31.2a16.378,16.378,0,0,0,1.912.1,15.856,15.856,0,0,0,9.829-3.383,7.931,7.931,0,0,1-7.4-5.491,9.984,9.984,0,0,0,1.5.123,8.373,8.373,0,0,0,2.083-.27,7.918,7.918,0,0,1-6.349-7.77v-.1a7.973,7.973,0,0,0,3.579,1A7.929,7.929,0,0,1,2.7,4.827a22.5,22.5,0,0,0,16.325,8.285,8.937,8.937,0,0,1-.2-1.814,7.925,7.925,0,0,1,13.7-5.417,15.587,15.587,0,0,0,5.025-1.912,7.9,7.9,0,0,1-3.481,4.363A15.872,15.872,0,0,0,38.63,7.107,17.019,17.019,0,0,1,34.659,11.2Z" transform="translate(0 -3.381)" fill="#707070"/>
</svg>
